<?xml version="1.0" standalone="no"?>
<!DOCTYPE svg PUBLIC "-//W3C//DTD SVG 1.1//EN" "http://www.w3.org/Graphics/SVG/1.1/DTD/svg11.dtd">
<svg version="1.1" width="1200" height="2158" onload="init(evt)" viewBox="0 0 1200 2158" xmlns="http://www.w3.org/2000/svg" xmlns:xlink="http://www.w3.org/1999/xlink">
<!-- Flame graph stack visualization. See https://github.com/brendangregg/FlameGraph for latest version, and http://www.brendangregg.com/flamegraphs.html for examples. -->
<!-- NOTES:  -->
<defs>
	<linearGradient id="background" y1="0" y2="1" x1="0" x2="0" >
		<stop stop-color="#eeeeee" offset="5%" />
		<stop stop-color="#eeeeb0" offset="95%" />
	</linearGradient>
</defs>
<style type="text/css">
	text { font-family:Verdana; font-size:12px; fill:rgb(0,0,0); }
	#search, #ignorecase { opacity:0.1; cursor:pointer; }
	#search:hover, #search.show, #ignorecase:hover, #ignorecase.show { opacity:1; }
	#subtitle { text-anchor:middle; font-color:rgb(160,160,160); }
	#title { text-anchor:middle; font-size:17px}
	#unzoom { cursor:pointer; }
	#frames > *:hover { stroke:black; stroke-width:0.5; cursor:pointer; }
	.hide { display:none; }
	.parent { opacity:0.5; }
</style>
<script type="text/ecmascript">
<![CDATA[
	"use strict";
	var details, searchbtn, unzoombtn, matchedtxt, svg, searching, currentSearchTerm, ignorecase, ignorecaseBtn;
	function init(evt) {
		details = document.getElementById("details").firstChild;
		searchbtn = document.getElementById("search");
		ignorecaseBtn = document.getElementById("ignorecase");
		unzoombtn = document.getElementById("unzoom");
		matchedtxt = document.getElementById("matched");
		svg = document.getElementsByTagName("svg")[0];
		searching = 0;
		currentSearchTerm = null;

		// use GET parameters to restore a flamegraphs state.
		var params = get_params();
		if (params.x && params.y)
			zoom(find_group(document.querySelector('[x="' + params.x + '"][y="' + params.y + '"]')));
                if (params.s) search(params.s);
	}

	// event listeners
	window.addEventListener("click", function(e) {
		var target = find_group(e.target);
		if (target) {
			if (target.nodeName == "a") {
				if (e.ctrlKey === false) return;
				e.preventDefault();
			}
			if (target.classList.contains("parent")) unzoom(true);
			zoom(target);
			if (!document.querySelector('.parent')) {
				// we have basically done a clearzoom so clear the url
				var params = get_params();
				if (params.x) delete params.x;
				if (params.y) delete params.y;
				history.replaceState(null, null, parse_params(params));
				unzoombtn.classList.add("hide");
				return;
			}

			// set parameters for zoom state
			var el = target.querySelector("rect");
			if (el && el.attributes && el.attributes.y && el.attributes._orig_x) {
				var params = get_params()
				params.x = el.attributes._orig_x.value;
				params.y = el.attributes.y.value;
				history.replaceState(null, null, parse_params(params));
			}
		}
		else if (e.target.id == "unzoom") clearzoom();
		else if (e.target.id == "search") search_prompt();
		else if (e.target.id == "ignorecase") toggle_ignorecase();
	}, false)

	// mouse-over for info
	// show
	window.addEventListener("mouseover", function(e) {
		var target = find_group(e.target);
		if (target) details.nodeValue = "Function: " + g_to_text(target);
	}, false)

	// clear
	window.addEventListener("mouseout", function(e) {
		var target = find_group(e.target);
		if (target) details.nodeValue = ' ';
	}, false)

	// ctrl-F for search
	// ctrl-I to toggle case-sensitive search
	window.addEventListener("keydown",function (e) {
		if (e.keyCode === 114 || (e.ctrlKey && e.keyCode === 70)) {
			e.preventDefault();
			search_prompt();
		}
		else if (e.ctrlKey && e.keyCode === 73) {
			e.preventDefault();
			toggle_ignorecase();
		}
	}, false)

	// functions
	function get_params() {
		var params = {};
		var paramsarr = window.location.search.substr(1).split('&');
		for (var i = 0; i < paramsarr.length; ++i) {
			var tmp = paramsarr[i].split("=");
			if (!tmp[0] || !tmp[1]) continue;
			params[tmp[0]]  = decodeURIComponent(tmp[1]);
		}
		return params;
	}
	function parse_params(params) {
		var uri = "?";
		for (var key in params) {
			uri += key + '=' + encodeURIComponent(params[key]) + '&';
		}
		if (uri.slice(-1) == "&")
			uri = uri.substring(0, uri.length - 1);
		if (uri == '?')
			uri = window.location.href.split('?')[0];
		return uri;
	}
	function find_child(node, selector) {
		var children = node.querySelectorAll(selector);
		if (children.length) return children[0];
	}
	function find_group(node) {
		var parent = node.parentElement;
		if (!parent) return;
		if (parent.id == "frames") return node;
		return find_group(parent);
	}
	function orig_save(e, attr, val) {
		if (e.attributes["_orig_" + attr] != undefined) return;
		if (e.attributes[attr] == undefined) return;
		if (val == undefined) val = e.attributes[attr].value;
		e.setAttribute("_orig_" + attr, val);
	}
	function orig_load(e, attr) {
		if (e.attributes["_orig_"+attr] == undefined) return;
		e.attributes[attr].value = e.attributes["_orig_" + attr].value;
		e.removeAttribute("_orig_"+attr);
	}
	function g_to_text(e) {
		var text = find_child(e, "title").firstChild.nodeValue;
		return (text)
	}
	function g_to_func(e) {
		var func = g_to_text(e);
		// if there's any manipulation we want to do to the function
		// name before it's searched, do it here before returning.
		return (func);
	}
	function update_text(e) {
		var r = find_child(e, "rect");
		var t = find_child(e, "text");
		var w = parseFloat(r.attributes.width.value) -3;
		var txt = find_child(e, "title").textContent.replace(/\([^(]*\)$/,"");
		t.attributes.x.value = parseFloat(r.attributes.x.value) + 3;

		// Smaller than this size won't fit anything
		if (w < 2 * 12 * 0.59) {
			t.textContent = "";
			return;
		}

		t.textContent = txt;
		var sl = t.getSubStringLength(0, txt.length);
		// check if only whitespace or if we can fit the entire string into width w
		if (/^ *$/.test(txt) || sl < w)
			return;

		// this isn't perfect, but gives a good starting point
		// and avoids calling getSubStringLength too often
		var start = Math.floor((w/sl) * txt.length);
		for (var x = start; x > 0; x = x-2) {
			if (t.getSubStringLength(0, x + 2) <= w) {
				t.textContent = txt.substring(0, x) + "..";
				return;
			}
		}
		t.textContent = "";
	}

	// zoom
	function zoom_reset(e) {
		if (e.attributes != undefined) {
			orig_load(e, "x");
			orig_load(e, "width");
		}
		if (e.childNodes == undefined) return;
		for (var i = 0, c = e.childNodes; i < c.length; i++) {
			zoom_reset(c[i]);
		}
	}
	function zoom_child(e, x, ratio) {
		if (e.attributes != undefined) {
			if (e.attributes.x != undefined) {
				orig_save(e, "x");
				e.attributes.x.value = (parseFloat(e.attributes.x.value) - x - 10) * ratio + 10;
				if (e.tagName == "text")
					e.attributes.x.value = find_child(e.parentNode, "rect[x]").attributes.x.value + 3;
			}
			if (e.attributes.width != undefined) {
				orig_save(e, "width");
				e.attributes.width.value = parseFloat(e.attributes.width.value) * ratio;
			}
		}

		if (e.childNodes == undefined) return;
		for (var i = 0, c = e.childNodes; i < c.length; i++) {
			zoom_child(c[i], x - 10, ratio);
		}
	}
	function zoom_parent(e) {
		if (e.attributes) {
			if (e.attributes.x != undefined) {
				orig_save(e, "x");
				e.attributes.x.value = 10;
			}
			if (e.attributes.width != undefined) {
				orig_save(e, "width");
				e.attributes.width.value = parseInt(svg.width.baseVal.value) - (10 * 2);
			}
		}
		if (e.childNodes == undefined) return;
		for (var i = 0, c = e.childNodes; i < c.length; i++) {
			zoom_parent(c[i]);
		}
	}
	function zoom(node) {
		var attr = find_child(node, "rect").attributes;
		var width = parseFloat(attr.width.value);
		var xmin = parseFloat(attr.x.value);
		var xmax = parseFloat(xmin + width);
		var ymin = parseFloat(attr.y.value);
		var ratio = (svg.width.baseVal.value - 2 * 10) / width;

		// XXX: Workaround for JavaScript float issues (fix me)
		var fudge = 0.0001;

		unzoombtn.classList.remove("hide");

		var el = document.getElementById("frames").children;
		for (var i = 0; i < el.length; i++) {
			var e = el[i];
			var a = find_child(e, "rect").attributes;
			var ex = parseFloat(a.x.value);
			var ew = parseFloat(a.width.value);
			var upstack;
			// Is it an ancestor
			if (0 == 0) {
				upstack = parseFloat(a.y.value) > ymin;
			} else {
				upstack = parseFloat(a.y.value) < ymin;
			}
			if (upstack) {
				// Direct ancestor
				if (ex <= xmin && (ex+ew+fudge) >= xmax) {
					e.classList.add("parent");
					zoom_parent(e);
					update_text(e);
				}
				// not in current path
				else
					e.classList.add("hide");
			}
			// Children maybe
			else {
				// no common path
				if (ex < xmin || ex + fudge >= xmax) {
					e.classList.add("hide");
				}
				else {
					zoom_child(e, xmin, ratio);
					update_text(e);
				}
			}
		}
		search();
	}
	function unzoom(dont_update_text) {
		unzoombtn.classList.add("hide");
		var el = document.getElementById("frames").children;
		for(var i = 0; i < el.length; i++) {
			el[i].classList.remove("parent");
			el[i].classList.remove("hide");
			zoom_reset(el[i]);
			if(!dont_update_text) update_text(el[i]);
		}
		search();
	}
	function clearzoom() {
		unzoom();

		// remove zoom state
		var params = get_params();
		if (params.x) delete params.x;
		if (params.y) delete params.y;
		history.replaceState(null, null, parse_params(params));
	}

	// search
	function toggle_ignorecase() {
		ignorecase = !ignorecase;
		if (ignorecase) {
			ignorecaseBtn.classList.add("show");
		} else {
			ignorecaseBtn.classList.remove("show");
		}
		reset_search();
		search();
	}
	function reset_search() {
		var el = document.querySelectorAll("#frames rect");
		for (var i = 0; i < el.length; i++) {
			orig_load(el[i], "fill")
		}
		var params = get_params();
		delete params.s;
		history.replaceState(null, null, parse_params(params));
	}
	function search_prompt() {
		if (!searching) {
			var term = prompt("Enter a search term (regexp " +
			    "allowed, eg: ^ext4_)"
			    + (ignorecase ? ", ignoring case" : "")
			    + "\nPress Ctrl-i to toggle case sensitivity", "");
			if (term != null) search(term);
		} else {
			reset_search();
			searching = 0;
			currentSearchTerm = null;
			searchbtn.classList.remove("show");
			searchbtn.firstChild.nodeValue = "Search"
			matchedtxt.classList.add("hide");
			matchedtxt.firstChild.nodeValue = ""
		}
	}
	function search(term) {
		if (term) currentSearchTerm = term;
		if (currentSearchTerm === null) return;

		var re = new RegExp(currentSearchTerm, ignorecase ? 'i' : '');
		var el = document.getElementById("frames").children;
		var matches = new Object();
		var maxwidth = 0;
		for (var i = 0; i < el.length; i++) {
			var e = el[i];
			var func = g_to_func(e);
			var rect = find_child(e, "rect");
			if (func == null || rect == null)
				continue;

			// Save max width. Only works as we have a root frame
			var w = parseFloat(rect.attributes.width.value);
			if (w > maxwidth)
				maxwidth = w;

			if (func.match(re)) {
				// highlight
				var x = parseFloat(rect.attributes.x.value);
				orig_save(rect, "fill");
				rect.attributes.fill.value = "rgb(230,0,230)";

				// remember matches
				if (matches[x] == undefined) {
					matches[x] = w;
				} else {
					if (w > matches[x]) {
						// overwrite with parent
						matches[x] = w;
					}
				}
				searching = 1;
			}
		}
		if (!searching)
			return;
		var params = get_params();
		params.s = currentSearchTerm;
		history.replaceState(null, null, parse_params(params));

		searchbtn.classList.add("show");
		searchbtn.firstChild.nodeValue = "Reset Search";

		// calculate percent matched, excluding vertical overlap
		var count = 0;
		var lastx = -1;
		var lastw = 0;
		var keys = Array();
		for (k in matches) {
			if (matches.hasOwnProperty(k))
				keys.push(k);
		}
		// sort the matched frames by their x location
		// ascending, then width descending
		keys.sort(function(a, b){
			return a - b;
		});
		// Step through frames saving only the biggest bottom-up frames
		// thanks to the sort order. This relies on the tree property
		// where children are always smaller than their parents.
		var fudge = 0.0001;	// JavaScript floating point
		for (var k in keys) {
			var x = parseFloat(keys[k]);
			var w = matches[keys[k]];
			if (x >= lastx + lastw - fudge) {
				count += w;
				lastx = x;
				lastw = w;
			}
		}
		// display matched percent
		matchedtxt.classList.remove("hide");
		var pct = 100 * count / maxwidth;
		if (pct != 100) pct = pct.toFixed(1)
		matchedtxt.firstChild.nodeValue = "Matched: " + pct + "%";
	}
]]>
</script>
<rect x="0.0" y="0" width="1200.0" height="2158.0" fill="url(#background)"  />
<text id="title" x="600.00" y="24" >Flame Graph: gc_collect</text>
<text id="subtitle" x="600.00" y="48" >Generated: 2025-09-13 22:50:58</text>
<text id="details" x="10.00" y="2141" > </text>
<text id="unzoom" x="10.00" y="24" class="hide">Reset Zoom</text>
<text id="search" x="1090.00" y="24" >Search</text>
<text id="ignorecase" x="1174.00" y="24" >ic</text>
<text id="matched" x="1090.00" y="2141" > </text>
<g id="frames">
<g >
<title>[unknown] (78,753,260 samples, 3.61%)</title><rect x="125.5" y="557" width="42.6" height="15.0" fill="rgb(210,24,5)" rx="2" ry="2" />
<text  x="128.52" y="567.5" >[unk..</text>
</g>
<g >
<title>PyMem_Malloc (26,235,439 samples, 1.20%)</title><rect x="26.1" y="2061" width="14.2" height="15.0" fill="rgb(221,75,18)" rx="2" ry="2" />
<text  x="29.08" y="2071.5" ></text>
</g>
<g >
<title>[unknown] (78,753,260 samples, 3.61%)</title><rect x="125.5" y="413" width="42.6" height="15.0" fill="rgb(210,24,5)" rx="2" ry="2" />
<text  x="128.52" y="423.5" >[unk..</text>
</g>
<g >
<title>visit_reachable (26,281,717 samples, 1.20%)</title><rect x="153.9" y="61" width="14.2" height="15.0" fill="rgb(252,216,51)" rx="2" ry="2" />
<text  x="156.87" y="71.5" ></text>
</g>
<g >
<title>[unknown] (78,753,260 samples, 3.61%)</title><rect x="125.5" y="1037" width="42.6" height="15.0" fill="rgb(210,24,5)" rx="2" ry="2" />
<text  x="128.52" y="1047.5" >[unk..</text>
</g>
<g >
<title>[unknown] (78,753,260 samples, 3.61%)</title><rect x="125.5" y="269" width="42.6" height="15.0" fill="rgb(210,24,5)" rx="2" ry="2" />
<text  x="128.52" y="279.5" >[unk..</text>
</g>
<g >
<title>_PyMem_DebugMalloc (26,233,241 samples, 1.20%)</title><rect x="309.9" y="2061" width="14.2" height="15.0" fill="rgb(211,31,7)" rx="2" ry="2" />
<text  x="312.93" y="2071.5" ></text>
</g>
<g >
<title>[unknown] (78,753,260 samples, 3.61%)</title><rect x="125.5" y="205" width="42.6" height="15.0" fill="rgb(210,24,5)" rx="2" ry="2" />
<text  x="128.52" y="215.5" >[unk..</text>
</g>
<g >
<title>[unknown] (78,753,260 samples, 3.61%)</title><rect x="125.5" y="973" width="42.6" height="15.0" fill="rgb(210,24,5)" rx="2" ry="2" />
<text  x="128.52" y="983.5" >[unk..</text>
</g>
<g >
<title>[unknown] (131,307,969 samples, 6.01%)</title><rect x="125.5" y="2061" width="71.0" height="15.0" fill="rgb(210,24,5)" rx="2" ry="2" />
<text  x="128.52" y="2071.5" >[unknown]</text>
</g>
<g >
<title>entry_SYSCALL_64_after_hwframe (3,524,746 samples, 0.16%)</title><rect x="10.0" y="2061" width="1.9" height="15.0" fill="rgb(218,63,15)" rx="2" ry="2" />
<text  x="13.00" y="2071.5" ></text>
</g>
<g >
<title>[unknown] (78,753,260 samples, 3.61%)</title><rect x="125.5" y="845" width="42.6" height="15.0" fill="rgb(210,24,5)" rx="2" ry="2" />
<text  x="128.52" y="855.5" >[unk..</text>
</g>
<g >
<title>[unknown] (78,753,260 samples, 3.61%)</title><rect x="125.5" y="237" width="42.6" height="15.0" fill="rgb(210,24,5)" rx="2" ry="2" />
<text  x="128.52" y="247.5" >[unk..</text>
</g>
<g >
<title>PyObject_ClearWeakRefs (26,366,523 samples, 1.21%)</title><rect x="40.3" y="2061" width="14.2" height="15.0" fill="rgb(219,67,16)" rx="2" ry="2" />
<text  x="43.25" y="2071.5" ></text>
</g>
<g >
<title>validate_list (448,745,954 samples, 20.55%)</title><rect x="947.5" y="2077" width="242.5" height="15.0" fill="rgb(242,172,41)" rx="2" ry="2" />
<text  x="950.54" y="2087.5" >validate_list</text>
</g>
<g >
<title>[unknown] (78,753,260 samples, 3.61%)</title><rect x="125.5" y="1069" width="42.6" height="15.0" fill="rgb(210,24,5)" rx="2" ry="2" />
<text  x="128.52" y="1079.5" >[unk..</text>
</g>
<g >
<title>exec_binprm (3,524,746 samples, 0.16%)</title><rect x="10.0" y="1949" width="1.9" height="15.0" fill="rgb(244,180,43)" rx="2" ry="2" />
<text  x="13.00" y="1959.5" ></text>
</g>
<g >
<title>_PyObject_Free (52,466,638 samples, 2.40%)</title><rect x="338.3" y="2061" width="28.3" height="15.0" fill="rgb(224,90,21)" rx="2" ry="2" />
<text  x="341.28" y="2071.5" >_P..</text>
</g>
<g >
<title>[unknown] (78,753,260 samples, 3.61%)</title><rect x="125.5" y="285" width="42.6" height="15.0" fill="rgb(210,24,5)" rx="2" ry="2" />
<text  x="128.52" y="295.5" >[unk..</text>
</g>
<g >
<title>[unknown] (78,753,260 samples, 3.61%)</title><rect x="125.5" y="893" width="42.6" height="15.0" fill="rgb(210,24,5)" rx="2" ry="2" />
<text  x="128.52" y="903.5" >[unk..</text>
</g>
<g >
<title>[unknown] (78,753,260 samples, 3.61%)</title><rect x="125.5" y="589" width="42.6" height="15.0" fill="rgb(210,24,5)" rx="2" ry="2" />
<text  x="128.52" y="599.5" >[unk..</text>
</g>
<g >
<title>PyObject_GC_UnTrack (52,457,539 samples, 2.40%)</title><rect x="54.5" y="2061" width="28.3" height="15.0" fill="rgb(230,118,28)" rx="2" ry="2" />
<text  x="57.50" y="2071.5" >Py..</text>
</g>
<g >
<title>[unknown] (78,753,260 samples, 3.61%)</title><rect x="125.5" y="1005" width="42.6" height="15.0" fill="rgb(210,24,5)" rx="2" ry="2" />
<text  x="128.52" y="1015.5" >[unk..</text>
</g>
<g >
<title>[unknown] (78,753,260 samples, 3.61%)</title><rect x="125.5" y="1501" width="42.6" height="15.0" fill="rgb(210,24,5)" rx="2" ry="2" />
<text  x="128.52" y="1511.5" >[unk..</text>
</g>
<g >
<title>[unknown] (78,753,260 samples, 3.61%)</title><rect x="125.5" y="221" width="42.6" height="15.0" fill="rgb(210,24,5)" rx="2" ry="2" />
<text  x="128.52" y="231.5" >[unk..</text>
</g>
<g >
<title>[unknown] (78,753,260 samples, 3.61%)</title><rect x="125.5" y="1901" width="42.6" height="15.0" fill="rgb(210,24,5)" rx="2" ry="2" />
<text  x="128.52" y="1911.5" >[unk..</text>
</g>
<g >
<title>[unknown] (78,753,260 samples, 3.61%)</title><rect x="125.5" y="1133" width="42.6" height="15.0" fill="rgb(210,24,5)" rx="2" ry="2" />
<text  x="128.52" y="1143.5" >[unk..</text>
</g>
<g >
<title>[unknown] (78,753,260 samples, 3.61%)</title><rect x="125.5" y="349" width="42.6" height="15.0" fill="rgb(210,24,5)" rx="2" ry="2" />
<text  x="128.52" y="359.5" >[unk..</text>
</g>
<g >
<title>[unknown] (78,753,260 samples, 3.61%)</title><rect x="125.5" y="701" width="42.6" height="15.0" fill="rgb(210,24,5)" rx="2" ry="2" />
<text  x="128.52" y="711.5" >[unk..</text>
</g>
<g >
<title>[unknown] (78,753,260 samples, 3.61%)</title><rect x="125.5" y="301" width="42.6" height="15.0" fill="rgb(210,24,5)" rx="2" ry="2" />
<text  x="128.52" y="311.5" >[unk..</text>
</g>
<g >
<title>__x64_sys_execve (3,524,746 samples, 0.16%)</title><rect x="10.0" y="2013" width="1.9" height="15.0" fill="rgb(247,193,46)" rx="2" ry="2" />
<text  x="13.00" y="2023.5" ></text>
</g>
<g >
<title>[unknown] (78,753,260 samples, 3.61%)</title><rect x="125.5" y="1437" width="42.6" height="15.0" fill="rgb(210,24,5)" rx="2" ry="2" />
<text  x="128.52" y="1447.5" >[unk..</text>
</g>
<g >
<title>[unknown] (78,753,260 samples, 3.61%)</title><rect x="125.5" y="877" width="42.6" height="15.0" fill="rgb(210,24,5)" rx="2" ry="2" />
<text  x="128.52" y="887.5" >[unk..</text>
</g>
<g >
<title>_Py_CheckFunctionResult (26,235,893 samples, 1.20%)</title><rect x="409.3" y="2061" width="14.1" height="15.0" fill="rgb(208,16,4)" rx="2" ry="2" />
<text  x="412.26" y="2071.5" ></text>
</g>
<g >
<title>[unknown] (78,753,260 samples, 3.61%)</title><rect x="125.5" y="1885" width="42.6" height="15.0" fill="rgb(210,24,5)" rx="2" ry="2" />
<text  x="128.52" y="1895.5" >[unk..</text>
</g>
<g >
<title>[unknown] (78,753,260 samples, 3.61%)</title><rect x="125.5" y="653" width="42.6" height="15.0" fill="rgb(210,24,5)" rx="2" ry="2" />
<text  x="128.52" y="663.5" >[unk..</text>
</g>
<g >
<title>list_traverse.lto_priv.0 (26,235,351 samples, 1.20%)</title><rect x="734.1" y="2061" width="14.2" height="15.0" fill="rgb(240,161,38)" rx="2" ry="2" />
<text  x="737.13" y="2071.5" ></text>
</g>
<g >
<title>[unknown] (78,753,260 samples, 3.61%)</title><rect x="125.5" y="525" width="42.6" height="15.0" fill="rgb(210,24,5)" rx="2" ry="2" />
<text  x="128.52" y="535.5" >[unk..</text>
</g>
<g >
<title>[unknown] (78,753,260 samples, 3.61%)</title><rect x="125.5" y="1661" width="42.6" height="15.0" fill="rgb(210,24,5)" rx="2" ry="2" />
<text  x="128.52" y="1671.5" >[unk..</text>
</g>
<g >
<title>[unknown] (78,753,260 samples, 3.61%)</title><rect x="125.5" y="1181" width="42.6" height="15.0" fill="rgb(210,24,5)" rx="2" ry="2" />
<text  x="128.52" y="1191.5" >[unk..</text>
</g>
<g >
<title>[unknown] (78,753,260 samples, 3.61%)</title><rect x="125.5" y="157" width="42.6" height="15.0" fill="rgb(210,24,5)" rx="2" ry="2" />
<text  x="128.52" y="167.5" >[unk..</text>
</g>
<g >
<title>_PyObject_Call_Prepend (26,251,242 samples, 1.20%)</title><rect x="168.1" y="2045" width="14.2" height="15.0" fill="rgb(211,30,7)" rx="2" ry="2" />
<text  x="171.07" y="2055.5" ></text>
</g>
<g >
<title>[unknown] (78,753,260 samples, 3.61%)</title><rect x="125.5" y="1725" width="42.6" height="15.0" fill="rgb(210,24,5)" rx="2" ry="2" />
<text  x="128.52" y="1735.5" >[unk..</text>
</g>
<g >
<title>[unknown] (78,753,260 samples, 3.61%)</title><rect x="125.5" y="1581" width="42.6" height="15.0" fill="rgb(210,24,5)" rx="2" ry="2" />
<text  x="128.52" y="1591.5" >[unk..</text>
</g>
<g >
<title>[unknown] (78,753,260 samples, 3.61%)</title><rect x="125.5" y="1821" width="42.6" height="15.0" fill="rgb(210,24,5)" rx="2" ry="2" />
<text  x="128.52" y="1831.5" >[unk..</text>
</g>
<g >
<title>[unknown] (78,753,260 samples, 3.61%)</title><rect x="125.5" y="781" width="42.6" height="15.0" fill="rgb(210,24,5)" rx="2" ry="2" />
<text  x="128.52" y="791.5" >[unk..</text>
</g>
<g >
<title>syscall_return_via_sysret (496,329,268 samples, 22.73%)</title><rect x="423.4" y="2045" width="268.2" height="15.0" fill="rgb(229,113,27)" rx="2" ry="2" />
<text  x="426.44" y="2055.5" >syscall_return_via_sysret</text>
</g>
<g >
<title>[unknown] (78,753,260 samples, 3.61%)</title><rect x="125.5" y="1053" width="42.6" height="15.0" fill="rgb(210,24,5)" rx="2" ry="2" />
<text  x="128.52" y="1063.5" >[unk..</text>
</g>
<g >
<title>[unknown] (78,753,260 samples, 3.61%)</title><rect x="125.5" y="1245" width="42.6" height="15.0" fill="rgb(210,24,5)" rx="2" ry="2" />
<text  x="128.52" y="1255.5" >[unk..</text>
</g>
<g >
<title>bprm_execve (3,524,746 samples, 0.16%)</title><rect x="10.0" y="1981" width="1.9" height="15.0" fill="rgb(218,61,14)" rx="2" ry="2" />
<text  x="13.00" y="1991.5" ></text>
</g>
<g >
<title>[unknown] (78,753,260 samples, 3.61%)</title><rect x="125.5" y="1565" width="42.6" height="15.0" fill="rgb(210,24,5)" rx="2" ry="2" />
<text  x="128.52" y="1575.5" >[unk..</text>
</g>
<g >
<title>[unknown] (78,753,260 samples, 3.61%)</title><rect x="125.5" y="909" width="42.6" height="15.0" fill="rgb(210,24,5)" rx="2" ry="2" />
<text  x="128.52" y="919.5" >[unk..</text>
</g>
<g >
<title>[unknown] (78,753,260 samples, 3.61%)</title><rect x="125.5" y="1741" width="42.6" height="15.0" fill="rgb(210,24,5)" rx="2" ry="2" />
<text  x="128.52" y="1751.5" >[unk..</text>
</g>
<g >
<title>[unknown] (78,753,260 samples, 3.61%)</title><rect x="125.5" y="1261" width="42.6" height="15.0" fill="rgb(210,24,5)" rx="2" ry="2" />
<text  x="128.52" y="1271.5" >[unk..</text>
</g>
<g >
<title>gc_collect_main (52,472,071 samples, 2.40%)</title><rect x="848.3" y="2077" width="28.4" height="15.0" fill="rgb(218,61,14)" rx="2" ry="2" />
<text  x="851.31" y="2087.5" >gc..</text>
</g>
<g >
<title>[unknown] (78,753,260 samples, 3.61%)</title><rect x="125.5" y="573" width="42.6" height="15.0" fill="rgb(210,24,5)" rx="2" ry="2" />
<text  x="128.52" y="583.5" >[unk..</text>
</g>
<g >
<title>[unknown] (78,753,260 samples, 3.61%)</title><rect x="125.5" y="765" width="42.6" height="15.0" fill="rgb(210,24,5)" rx="2" ry="2" />
<text  x="128.52" y="775.5" >[unk..</text>
</g>
<g >
<title>__brk (496,329,268 samples, 22.73%)</title><rect x="423.4" y="2061" width="268.2" height="15.0" fill="rgb(225,94,22)" rx="2" ry="2" />
<text  x="426.44" y="2071.5" >__brk</text>
</g>
<g >
<title>[unknown] (78,753,260 samples, 3.61%)</title><rect x="125.5" y="1981" width="42.6" height="15.0" fill="rgb(210,24,5)" rx="2" ry="2" />
<text  x="128.52" y="1991.5" >[unk..</text>
</g>
<g >
<title>[unknown] (78,753,260 samples, 3.61%)</title><rect x="125.5" y="1117" width="42.6" height="15.0" fill="rgb(210,24,5)" rx="2" ry="2" />
<text  x="128.52" y="1127.5" >[unk..</text>
</g>
<g >
<title>[unknown] (78,753,260 samples, 3.61%)</title><rect x="125.5" y="1325" width="42.6" height="15.0" fill="rgb(210,24,5)" rx="2" ry="2" />
<text  x="128.52" y="1335.5" >[unk..</text>
</g>
<g >
<title>[unknown] (78,753,260 samples, 3.61%)</title><rect x="125.5" y="189" width="42.6" height="15.0" fill="rgb(210,24,5)" rx="2" ry="2" />
<text  x="128.52" y="199.5" >[unk..</text>
</g>
<g >
<title>[unknown] (78,753,260 samples, 3.61%)</title><rect x="125.5" y="141" width="42.6" height="15.0" fill="rgb(210,24,5)" rx="2" ry="2" />
<text  x="128.52" y="151.5" >[unk..</text>
</g>
<g >
<title>[unknown] (78,753,260 samples, 3.61%)</title><rect x="125.5" y="1453" width="42.6" height="15.0" fill="rgb(210,24,5)" rx="2" ry="2" />
<text  x="128.52" y="1463.5" >[unk..</text>
</g>
<g >
<title>[unknown] (78,753,260 samples, 3.61%)</title><rect x="125.5" y="1949" width="42.6" height="15.0" fill="rgb(210,24,5)" rx="2" ry="2" />
<text  x="128.52" y="1959.5" >[unk..</text>
</g>
<g >
<title>[unknown] (78,753,260 samples, 3.61%)</title><rect x="125.5" y="637" width="42.6" height="15.0" fill="rgb(210,24,5)" rx="2" ry="2" />
<text  x="128.52" y="647.5" >[unk..</text>
</g>
<g >
<title>perf-exec (3,524,746 samples, 0.16%)</title><rect x="10.0" y="2093" width="1.9" height="15.0" fill="rgb(231,123,29)" rx="2" ry="2" />
<text  x="13.00" y="2103.5" ></text>
</g>
<g >
<title>[unknown] (78,753,260 samples, 3.61%)</title><rect x="125.5" y="2029" width="42.6" height="15.0" fill="rgb(210,24,5)" rx="2" ry="2" />
<text  x="128.52" y="2039.5" >[unk..</text>
</g>
<g >
<title>[unknown] (78,753,260 samples, 3.61%)</title><rect x="125.5" y="317" width="42.6" height="15.0" fill="rgb(210,24,5)" rx="2" ry="2" />
<text  x="128.52" y="327.5" >[unk..</text>
</g>
<g >
<title>[unknown] (78,753,260 samples, 3.61%)</title><rect x="125.5" y="1373" width="42.6" height="15.0" fill="rgb(210,24,5)" rx="2" ry="2" />
<text  x="128.52" y="1383.5" >[unk..</text>
</g>
<g >
<title>[unknown] (78,753,260 samples, 3.61%)</title><rect x="125.5" y="1789" width="42.6" height="15.0" fill="rgb(210,24,5)" rx="2" ry="2" />
<text  x="128.52" y="1799.5" >[unk..</text>
</g>
<g >
<title>[unknown] (78,753,260 samples, 3.61%)</title><rect x="125.5" y="1309" width="42.6" height="15.0" fill="rgb(210,24,5)" rx="2" ry="2" />
<text  x="128.52" y="1319.5" >[unk..</text>
</g>
<g >
<title>[unknown] (78,753,260 samples, 3.61%)</title><rect x="125.5" y="1629" width="42.6" height="15.0" fill="rgb(210,24,5)" rx="2" ry="2" />
<text  x="128.52" y="1639.5" >[unk..</text>
</g>
<g >
<title>_PyObject_MakeTpCall (26,235,069 samples, 1.20%)</title><rect x="790.8" y="2077" width="14.2" height="15.0" fill="rgb(229,113,27)" rx="2" ry="2" />
<text  x="793.83" y="2087.5" ></text>
</g>
<g >
<title>[unknown] (78,753,260 samples, 3.61%)</title><rect x="125.5" y="829" width="42.6" height="15.0" fill="rgb(210,24,5)" rx="2" ry="2" />
<text  x="128.52" y="839.5" >[unk..</text>
</g>
<g >
<title>search_binary_handler (3,524,746 samples, 0.16%)</title><rect x="10.0" y="1933" width="1.9" height="15.0" fill="rgb(208,14,3)" rx="2" ry="2" />
<text  x="13.00" y="1943.5" ></text>
</g>
<g >
<title>[unknown] (78,753,260 samples, 3.61%)</title><rect x="125.5" y="493" width="42.6" height="15.0" fill="rgb(210,24,5)" rx="2" ry="2" />
<text  x="128.52" y="503.5" >[unk..</text>
</g>
<g >
<title>bprm_execve.part.0 (3,524,746 samples, 0.16%)</title><rect x="10.0" y="1965" width="1.9" height="15.0" fill="rgb(228,106,25)" rx="2" ry="2" />
<text  x="13.00" y="1975.5" ></text>
</g>
<g >
<title>[unknown] (78,753,260 samples, 3.61%)</title><rect x="125.5" y="109" width="42.6" height="15.0" fill="rgb(210,24,5)" rx="2" ry="2" />
<text  x="128.52" y="119.5" >[unk..</text>
</g>
<g >
<title>[unknown] (78,753,260 samples, 3.61%)</title><rect x="125.5" y="1357" width="42.6" height="15.0" fill="rgb(210,24,5)" rx="2" ry="2" />
<text  x="128.52" y="1367.5" >[unk..</text>
</g>
<g >
<title>[unknown] (78,753,260 samples, 3.61%)</title><rect x="125.5" y="957" width="42.6" height="15.0" fill="rgb(210,24,5)" rx="2" ry="2" />
<text  x="128.52" y="967.5" >[unk..</text>
</g>
<g >
<title>[unknown] (78,753,260 samples, 3.61%)</title><rect x="125.5" y="77" width="42.6" height="15.0" fill="rgb(210,24,5)" rx="2" ry="2" />
<text  x="128.52" y="87.5" >[unk..</text>
</g>
<g >
<title>[unknown] (78,753,260 samples, 3.61%)</title><rect x="125.5" y="1389" width="42.6" height="15.0" fill="rgb(210,24,5)" rx="2" ry="2" />
<text  x="128.52" y="1399.5" >[unk..</text>
</g>
<g >
<title>[unknown] (78,753,260 samples, 3.61%)</title><rect x="125.5" y="125" width="42.6" height="15.0" fill="rgb(210,24,5)" rx="2" ry="2" />
<text  x="128.52" y="135.5" >[unk..</text>
</g>
<g >
<title>move_unreachable (26,236,327 samples, 1.20%)</title><rect x="139.7" y="61" width="14.2" height="15.0" fill="rgb(210,27,6)" rx="2" ry="2" />
<text  x="142.70" y="71.5" ></text>
</g>
<g >
<title>update_refs (52,472,672 samples, 2.40%)</title><rect x="919.2" y="2077" width="28.3" height="15.0" fill="rgb(205,2,0)" rx="2" ry="2" />
<text  x="922.19" y="2087.5" >up..</text>
</g>
<g >
<title>[unknown] (78,753,260 samples, 3.61%)</title><rect x="125.5" y="253" width="42.6" height="15.0" fill="rgb(210,24,5)" rx="2" ry="2" />
<text  x="128.52" y="263.5" >[unk..</text>
</g>
<g >
<title>[unknown] (78,753,260 samples, 3.61%)</title><rect x="125.5" y="173" width="42.6" height="15.0" fill="rgb(210,24,5)" rx="2" ry="2" />
<text  x="128.52" y="183.5" >[unk..</text>
</g>
<g >
<title>PyTuple_GetItem (52,720,461 samples, 2.41%)</title><rect x="97.0" y="2061" width="28.5" height="15.0" fill="rgb(241,167,40)" rx="2" ry="2" />
<text  x="100.04" y="2071.5" >Py..</text>
</g>
<g >
<title>_PyEval_EvalFrameDefault (210,002,450 samples, 9.62%)</title><rect x="196.5" y="2061" width="113.4" height="15.0" fill="rgb(221,75,17)" rx="2" ry="2" />
<text  x="199.47" y="2071.5" >_PyEval_EvalFr..</text>
</g>
<g >
<title>[unknown] (78,753,260 samples, 3.61%)</title><rect x="125.5" y="397" width="42.6" height="15.0" fill="rgb(210,24,5)" rx="2" ry="2" />
<text  x="128.52" y="407.5" >[unk..</text>
</g>
<g >
<title>[unknown] (78,753,260 samples, 3.61%)</title><rect x="125.5" y="989" width="42.6" height="15.0" fill="rgb(210,24,5)" rx="2" ry="2" />
<text  x="128.52" y="999.5" >[unk..</text>
</g>
<g >
<title>[unknown] (78,753,260 samples, 3.61%)</title><rect x="125.5" y="365" width="42.6" height="15.0" fill="rgb(210,24,5)" rx="2" ry="2" />
<text  x="128.52" y="375.5" >[unk..</text>
</g>
<g >
<title>[unknown] (78,753,260 samples, 3.61%)</title><rect x="125.5" y="429" width="42.6" height="15.0" fill="rgb(210,24,5)" rx="2" ry="2" />
<text  x="128.52" y="439.5" >[unk..</text>
</g>
<g >
<title>[unknown] (78,753,260 samples, 3.61%)</title><rect x="125.5" y="445" width="42.6" height="15.0" fill="rgb(210,24,5)" rx="2" ry="2" />
<text  x="128.52" y="455.5" >[unk..</text>
</g>
<g >
<title>[unknown] (1,362,928,158 samples, 62.41%)</title><rect x="26.1" y="2077" width="736.4" height="15.0" fill="rgb(210,24,5)" rx="2" ry="2" />
<text  x="29.08" y="2087.5" >[unknown]</text>
</g>
<g >
<title>call_function.lto_priv.0 (26,303,467 samples, 1.20%)</title><rect x="182.3" y="2045" width="14.2" height="15.0" fill="rgb(235,141,33)" rx="2" ry="2" />
<text  x="185.26" y="2055.5" ></text>
</g>
<g >
<title>[unknown] (78,753,260 samples, 3.61%)</title><rect x="125.5" y="1997" width="42.6" height="15.0" fill="rgb(210,24,5)" rx="2" ry="2" />
<text  x="128.52" y="2007.5" >[unk..</text>
</g>
<g >
<title>[unknown] (78,753,260 samples, 3.61%)</title><rect x="125.5" y="1405" width="42.6" height="15.0" fill="rgb(210,24,5)" rx="2" ry="2" />
<text  x="128.52" y="1415.5" >[unk..</text>
</g>
<g >
<title>[unknown] (78,753,260 samples, 3.61%)</title><rect x="125.5" y="461" width="42.6" height="15.0" fill="rgb(210,24,5)" rx="2" ry="2" />
<text  x="128.52" y="471.5" >[unk..</text>
</g>
<g >
<title>[unknown] (78,753,260 samples, 3.61%)</title><rect x="125.5" y="509" width="42.6" height="15.0" fill="rgb(210,24,5)" rx="2" ry="2" />
<text  x="128.52" y="519.5" >[unk..</text>
</g>
<g >
<title>__set_task_comm (3,508,918 samples, 0.16%)</title><rect x="10.0" y="1885" width="1.9" height="15.0" fill="rgb(239,157,37)" rx="2" ry="2" />
<text  x="13.00" y="1895.5" ></text>
</g>
<g >
<title>[unknown] (78,753,260 samples, 3.61%)</title><rect x="125.5" y="1149" width="42.6" height="15.0" fill="rgb(210,24,5)" rx="2" ry="2" />
<text  x="128.52" y="1159.5" >[unk..</text>
</g>
<g >
<title>[unknown] (78,753,260 samples, 3.61%)</title><rect x="125.5" y="381" width="42.6" height="15.0" fill="rgb(210,24,5)" rx="2" ry="2" />
<text  x="128.52" y="391.5" >[unk..</text>
</g>
<g >
<title>[unknown] (78,753,260 samples, 3.61%)</title><rect x="125.5" y="1421" width="42.6" height="15.0" fill="rgb(210,24,5)" rx="2" ry="2" />
<text  x="128.52" y="1431.5" >[unk..</text>
</g>
<g >
<title>[unknown] (78,753,260 samples, 3.61%)</title><rect x="125.5" y="1917" width="42.6" height="15.0" fill="rgb(210,24,5)" rx="2" ry="2" />
<text  x="128.52" y="1927.5" >[unk..</text>
</g>
<g >
<title>[unknown] (78,753,260 samples, 3.61%)</title><rect x="125.5" y="669" width="42.6" height="15.0" fill="rgb(210,24,5)" rx="2" ry="2" />
<text  x="128.52" y="679.5" >[unk..</text>
</g>
<g >
<title>[unknown] (3,524,746 samples, 0.16%)</title><rect x="10.0" y="2077" width="1.9" height="15.0" fill="rgb(210,24,5)" rx="2" ry="2" />
<text  x="13.00" y="2087.5" ></text>
</g>
<g >
<title>[unknown] (78,753,260 samples, 3.61%)</title><rect x="125.5" y="1277" width="42.6" height="15.0" fill="rgb(210,24,5)" rx="2" ry="2" />
<text  x="128.52" y="1287.5" >[unk..</text>
</g>
<g >
<title>[unknown] (78,753,260 samples, 3.61%)</title><rect x="125.5" y="1965" width="42.6" height="15.0" fill="rgb(210,24,5)" rx="2" ry="2" />
<text  x="128.52" y="1975.5" >[unk..</text>
</g>
<g >
<title>[unknown] (78,753,260 samples, 3.61%)</title><rect x="125.5" y="1757" width="42.6" height="15.0" fill="rgb(210,24,5)" rx="2" ry="2" />
<text  x="128.52" y="1767.5" >[unk..</text>
</g>
<g >
<title>[unknown] (78,753,260 samples, 3.61%)</title><rect x="125.5" y="797" width="42.6" height="15.0" fill="rgb(210,24,5)" rx="2" ry="2" />
<text  x="128.52" y="807.5" >[unk..</text>
</g>
<g >
<title>do_execveat_common.isra.0 (3,524,746 samples, 0.16%)</title><rect x="10.0" y="1997" width="1.9" height="15.0" fill="rgb(231,123,29)" rx="2" ry="2" />
<text  x="13.00" y="2007.5" ></text>
</g>
<g >
<title>do_syscall_64 (3,524,746 samples, 0.16%)</title><rect x="10.0" y="2045" width="1.9" height="15.0" fill="rgb(209,20,4)" rx="2" ry="2" />
<text  x="13.00" y="2055.5" ></text>
</g>
<g >
<title>[unknown] (78,753,260 samples, 3.61%)</title><rect x="125.5" y="2013" width="42.6" height="15.0" fill="rgb(210,24,5)" rx="2" ry="2" />
<text  x="128.52" y="2023.5" >[unk..</text>
</g>
<g >
<title>[unknown] (78,753,260 samples, 3.61%)</title><rect x="125.5" y="1341" width="42.6" height="15.0" fill="rgb(210,24,5)" rx="2" ry="2" />
<text  x="128.52" y="1351.5" >[unk..</text>
</g>
<g >
<title>method_vectorcall_O (26,234,530 samples, 1.20%)</title><rect x="905.0" y="2077" width="14.2" height="15.0" fill="rgb(216,52,12)" rx="2" ry="2" />
<text  x="908.01" y="2087.5" ></text>
</g>
<g >
<title>[unknown] (78,753,260 samples, 3.61%)</title><rect x="125.5" y="1597" width="42.6" height="15.0" fill="rgb(210,24,5)" rx="2" ry="2" />
<text  x="128.52" y="1607.5" >[unk..</text>
</g>
<g >
<title>begin_new_exec (3,524,746 samples, 0.16%)</title><rect x="10.0" y="1901" width="1.9" height="15.0" fill="rgb(245,184,44)" rx="2" ry="2" />
<text  x="13.00" y="1911.5" ></text>
</g>
<g >
<title>[unknown] (78,753,260 samples, 3.61%)</title><rect x="125.5" y="1693" width="42.6" height="15.0" fill="rgb(210,24,5)" rx="2" ry="2" />
<text  x="128.52" y="1703.5" >[unk..</text>
</g>
<g >
<title>[unknown] (78,753,260 samples, 3.61%)</title><rect x="125.5" y="1469" width="42.6" height="15.0" fill="rgb(210,24,5)" rx="2" ry="2" />
<text  x="128.52" y="1479.5" >[unk..</text>
</g>
<g >
<title>dict_dealloc.lto_priv.0 (26,233,265 samples, 1.20%)</title><rect x="691.6" y="2061" width="14.2" height="15.0" fill="rgb(227,101,24)" rx="2" ry="2" />
<text  x="694.61" y="2071.5" ></text>
</g>
<g >
<title>[unknown] (78,753,260 samples, 3.61%)</title><rect x="125.5" y="1085" width="42.6" height="15.0" fill="rgb(210,24,5)" rx="2" ry="2" />
<text  x="128.52" y="1095.5" >[unk..</text>
</g>
<g >
<title>all (2,183,941,062 samples, 100%)</title><rect x="10.0" y="2109" width="1180.0" height="15.0" fill="rgb(213,39,9)" rx="2" ry="2" />
<text  x="13.00" y="2119.5" ></text>
</g>
<g >
<title>[unknown] (78,753,260 samples, 3.61%)</title><rect x="125.5" y="621" width="42.6" height="15.0" fill="rgb(210,24,5)" rx="2" ry="2" />
<text  x="128.52" y="631.5" >[unk..</text>
</g>
<g >
<title>[unknown] (78,753,260 samples, 3.61%)</title><rect x="125.5" y="1213" width="42.6" height="15.0" fill="rgb(210,24,5)" rx="2" ry="2" />
<text  x="128.52" y="1223.5" >[unk..</text>
</g>
<g >
<title>gc_list_size (52,472,060 samples, 2.40%)</title><rect x="876.7" y="2077" width="28.3" height="15.0" fill="rgb(251,213,50)" rx="2" ry="2" />
<text  x="879.66" y="2087.5" >gc..</text>
</g>
<g >
<title>[unknown] (78,753,260 samples, 3.61%)</title><rect x="125.5" y="477" width="42.6" height="15.0" fill="rgb(210,24,5)" rx="2" ry="2" />
<text  x="128.52" y="487.5" >[unk..</text>
</g>
<g >
<title>[unknown] (78,753,260 samples, 3.61%)</title><rect x="125.5" y="1533" width="42.6" height="15.0" fill="rgb(210,24,5)" rx="2" ry="2" />
<text  x="128.52" y="1543.5" >[unk..</text>
</g>
<g >
<title>frame_dealloc.lto_priv.0 (52,470,261 samples, 2.40%)</title><rect x="705.8" y="2061" width="28.3" height="15.0" fill="rgb(211,31,7)" rx="2" ry="2" />
<text  x="708.78" y="2071.5" >fr..</text>
</g>
<g >
<title>[unknown] (78,753,260 samples, 3.61%)</title><rect x="125.5" y="1805" width="42.6" height="15.0" fill="rgb(210,24,5)" rx="2" ry="2" />
<text  x="128.52" y="1815.5" >[unk..</text>
</g>
<g >
<title>_PyObject_IsFreed (78,897,291 samples, 3.61%)</title><rect x="366.6" y="2061" width="42.7" height="15.0" fill="rgb(214,42,10)" rx="2" ry="2" />
<text  x="369.63" y="2071.5" >_PyO..</text>
</g>
<g >
<title>[unknown] (78,753,260 samples, 3.61%)</title><rect x="125.5" y="733" width="42.6" height="15.0" fill="rgb(210,24,5)" rx="2" ry="2" />
<text  x="128.52" y="743.5" >[unk..</text>
</g>
<g >
<title>[unknown] (78,753,260 samples, 3.61%)</title><rect x="125.5" y="605" width="42.6" height="15.0" fill="rgb(210,24,5)" rx="2" ry="2" />
<text  x="128.52" y="615.5" >[unk..</text>
</g>
<g >
<title>[unknown] (78,753,260 samples, 3.61%)</title><rect x="125.5" y="1933" width="42.6" height="15.0" fill="rgb(210,24,5)" rx="2" ry="2" />
<text  x="128.52" y="1943.5" >[unk..</text>
</g>
<g >
<title>[unknown] (78,753,260 samples, 3.61%)</title><rect x="125.5" y="1101" width="42.6" height="15.0" fill="rgb(210,24,5)" rx="2" ry="2" />
<text  x="128.52" y="1111.5" >[unk..</text>
</g>
<g >
<title>[unknown] (78,753,260 samples, 3.61%)</title><rect x="125.5" y="1293" width="42.6" height="15.0" fill="rgb(210,24,5)" rx="2" ry="2" />
<text  x="128.52" y="1303.5" >[unk..</text>
</g>
<g >
<title>[unknown] (78,753,260 samples, 3.61%)</title><rect x="125.5" y="1165" width="42.6" height="15.0" fill="rgb(210,24,5)" rx="2" ry="2" />
<text  x="128.52" y="1175.5" >[unk..</text>
</g>
<g >
<title>_PyDict_CheckConsistency (52,469,993 samples, 2.40%)</title><rect x="762.5" y="2077" width="28.3" height="15.0" fill="rgb(235,139,33)" rx="2" ry="2" />
<text  x="765.48" y="2087.5" >_P..</text>
</g>
<g >
<title>[unknown] (78,753,260 samples, 3.61%)</title><rect x="125.5" y="1645" width="42.6" height="15.0" fill="rgb(210,24,5)" rx="2" ry="2" />
<text  x="128.52" y="1655.5" >[unk..</text>
</g>
<g >
<title>[unknown] (78,753,260 samples, 3.61%)</title><rect x="125.5" y="541" width="42.6" height="15.0" fill="rgb(210,24,5)" rx="2" ry="2" />
<text  x="128.52" y="551.5" >[unk..</text>
</g>
<g >
<title>PyThread_tss_get (26,266,655 samples, 1.20%)</title><rect x="82.8" y="2061" width="14.2" height="15.0" fill="rgb(209,20,4)" rx="2" ry="2" />
<text  x="85.84" y="2071.5" ></text>
</g>
<g >
<title>[unknown] (78,753,260 samples, 3.61%)</title><rect x="125.5" y="1773" width="42.6" height="15.0" fill="rgb(210,24,5)" rx="2" ry="2" />
<text  x="128.52" y="1783.5" >[unk..</text>
</g>
<g >
<title>perf_event_comm (3,508,918 samples, 0.16%)</title><rect x="10.0" y="1869" width="1.9" height="15.0" fill="rgb(222,82,19)" rx="2" ry="2" />
<text  x="13.00" y="1879.5" ></text>
</g>
<g >
<title>[unknown] (78,753,260 samples, 3.61%)</title><rect x="125.5" y="1853" width="42.6" height="15.0" fill="rgb(210,24,5)" rx="2" ry="2" />
<text  x="128.52" y="1863.5" >[unk..</text>
</g>
<g >
<title>[unknown] (78,753,260 samples, 3.61%)</title><rect x="125.5" y="813" width="42.6" height="15.0" fill="rgb(210,24,5)" rx="2" ry="2" />
<text  x="128.52" y="823.5" >[unk..</text>
</g>
<g >
<title>[unknown] (78,753,260 samples, 3.61%)</title><rect x="125.5" y="685" width="42.6" height="15.0" fill="rgb(210,24,5)" rx="2" ry="2" />
<text  x="128.52" y="695.5" >[unk..</text>
</g>
<g >
<title>[unknown] (78,753,260 samples, 3.61%)</title><rect x="125.5" y="1613" width="42.6" height="15.0" fill="rgb(210,24,5)" rx="2" ry="2" />
<text  x="128.52" y="1623.5" >[unk..</text>
</g>
<g >
<title>[unknown] (78,753,260 samples, 3.61%)</title><rect x="125.5" y="2045" width="42.6" height="15.0" fill="rgb(210,24,5)" rx="2" ry="2" />
<text  x="128.52" y="2055.5" >[unk..</text>
</g>
<g >
<title>perf_iterate_sb (3,508,918 samples, 0.16%)</title><rect x="10.0" y="1853" width="1.9" height="15.0" fill="rgb(244,179,42)" rx="2" ry="2" />
<text  x="13.00" y="1863.5" ></text>
</g>
<g >
<title>[unknown] (78,753,260 samples, 3.61%)</title><rect x="125.5" y="1485" width="42.6" height="15.0" fill="rgb(210,24,5)" rx="2" ry="2" />
<text  x="128.52" y="1495.5" >[unk..</text>
</g>
<g >
<title>[unknown] (78,753,260 samples, 3.61%)</title><rect x="125.5" y="1021" width="42.6" height="15.0" fill="rgb(210,24,5)" rx="2" ry="2" />
<text  x="128.52" y="1031.5" >[unk..</text>
</g>
<g >
<title>[unknown] (78,753,260 samples, 3.61%)</title><rect x="125.5" y="1709" width="42.6" height="15.0" fill="rgb(210,24,5)" rx="2" ry="2" />
<text  x="128.52" y="1719.5" >[unk..</text>
</g>
<g >
<title>dict_traverse.lto_priv.0 (80,150,593 samples, 3.67%)</title><rect x="805.0" y="2077" width="43.3" height="15.0" fill="rgb(245,185,44)" rx="2" ry="2" />
<text  x="808.00" y="2087.5" >dict..</text>
</g>
<g >
<title>_PyMem_DebugRawAlloc (26,234,746 samples, 1.20%)</title><rect x="324.1" y="2061" width="14.2" height="15.0" fill="rgb(240,165,39)" rx="2" ry="2" />
<text  x="327.11" y="2071.5" ></text>
</g>
<g >
<title>[unknown] (78,753,260 samples, 3.61%)</title><rect x="125.5" y="941" width="42.6" height="15.0" fill="rgb(210,24,5)" rx="2" ry="2" />
<text  x="128.52" y="951.5" >[unk..</text>
</g>
<g >
<title>[unknown] (78,753,260 samples, 3.61%)</title><rect x="125.5" y="93" width="42.6" height="15.0" fill="rgb(210,24,5)" rx="2" ry="2" />
<text  x="128.52" y="103.5" >[unk..</text>
</g>
<g >
<title>[unknown] (78,753,260 samples, 3.61%)</title><rect x="125.5" y="333" width="42.6" height="15.0" fill="rgb(210,24,5)" rx="2" ry="2" />
<text  x="128.52" y="343.5" >[unk..</text>
</g>
<g >
<title>[unknown] (78,753,260 samples, 3.61%)</title><rect x="125.5" y="1837" width="42.6" height="15.0" fill="rgb(210,24,5)" rx="2" ry="2" />
<text  x="128.52" y="1847.5" >[unk..</text>
</g>
<g >
<title>set_traverse.lto_priv.0 (26,235,168 samples, 1.20%)</title><rect x="748.3" y="2061" width="14.2" height="15.0" fill="rgb(213,39,9)" rx="2" ry="2" />
<text  x="751.30" y="2071.5" ></text>
</g>
<g >
<title>[unknown] (78,753,260 samples, 3.61%)</title><rect x="125.5" y="1229" width="42.6" height="15.0" fill="rgb(210,24,5)" rx="2" ry="2" />
<text  x="128.52" y="1239.5" >[unk..</text>
</g>
<g >
<title>[unknown] (78,753,260 samples, 3.61%)</title><rect x="125.5" y="1549" width="42.6" height="15.0" fill="rgb(210,24,5)" rx="2" ry="2" />
<text  x="128.52" y="1559.5" >[unk..</text>
</g>
<g >
<title>python (2,180,416,316 samples, 99.84%)</title><rect x="11.9" y="2093" width="1178.1" height="15.0" fill="rgb(209,21,5)" rx="2" ry="2" />
<text  x="14.90" y="2103.5" >python</text>
</g>
<g >
<title>PyGILState_Check (26,235,216 samples, 1.20%)</title><rect x="11.9" y="2077" width="14.2" height="15.0" fill="rgb(228,108,25)" rx="2" ry="2" />
<text  x="14.90" y="2087.5" ></text>
</g>
<g >
<title>[unknown] (78,753,260 samples, 3.61%)</title><rect x="125.5" y="925" width="42.6" height="15.0" fill="rgb(210,24,5)" rx="2" ry="2" />
<text  x="128.52" y="935.5" >[unk..</text>
</g>
<g >
<title>x64_sys_call (3,524,746 samples, 0.16%)</title><rect x="10.0" y="2029" width="1.9" height="15.0" fill="rgb(247,194,46)" rx="2" ry="2" />
<text  x="13.00" y="2039.5" ></text>
</g>
<g >
<title>[unknown] (78,753,260 samples, 3.61%)</title><rect x="125.5" y="749" width="42.6" height="15.0" fill="rgb(210,24,5)" rx="2" ry="2" />
<text  x="128.52" y="759.5" >[unk..</text>
</g>
<g >
<title>[unknown] (78,753,260 samples, 3.61%)</title><rect x="125.5" y="861" width="42.6" height="15.0" fill="rgb(210,24,5)" rx="2" ry="2" />
<text  x="128.52" y="871.5" >[unk..</text>
</g>
<g >
<title>[unknown] (78,753,260 samples, 3.61%)</title><rect x="125.5" y="717" width="42.6" height="15.0" fill="rgb(210,24,5)" rx="2" ry="2" />
<text  x="128.52" y="727.5" >[unk..</text>
</g>
<g >
<title>dict_traverse.lto_priv.0 (26,235,216 samples, 1.20%)</title><rect x="125.5" y="61" width="14.2" height="15.0" fill="rgb(245,185,44)" rx="2" ry="2" />
<text  x="128.52" y="71.5" ></text>
</g>
<g >
<title>[unknown] (78,753,260 samples, 3.61%)</title><rect x="125.5" y="1517" width="42.6" height="15.0" fill="rgb(210,24,5)" rx="2" ry="2" />
<text  x="128.52" y="1527.5" >[unk..</text>
</g>
<g >
<title>load_elf_binary (3,524,746 samples, 0.16%)</title><rect x="10.0" y="1917" width="1.9" height="15.0" fill="rgb(223,83,20)" rx="2" ry="2" />
<text  x="13.00" y="1927.5" ></text>
</g>
<g >
<title>[unknown] (78,753,260 samples, 3.61%)</title><rect x="125.5" y="1869" width="42.6" height="15.0" fill="rgb(210,24,5)" rx="2" ry="2" />
<text  x="128.52" y="1879.5" >[unk..</text>
</g>
<g >
<title>[unknown] (78,753,260 samples, 3.61%)</title><rect x="125.5" y="1197" width="42.6" height="15.0" fill="rgb(210,24,5)" rx="2" ry="2" />
<text  x="128.52" y="1207.5" >[unk..</text>
</g>
<g >
<title>[unknown] (78,753,260 samples, 3.61%)</title><rect x="125.5" y="1677" width="42.6" height="15.0" fill="rgb(210,24,5)" rx="2" ry="2" />
<text  x="128.52" y="1687.5" >[unk..</text>
</g>
</g>
</svg>
